<?xml version="1.0" standalone="no"?>
<!DOCTYPE svg PUBLIC "-//W3C//DTD SVG 20010904//EN"
 "http://www.w3.org/TR/2001/REC-SVG-20010904/DTD/svg10.dtd">
<svg version="1.0" xmlns="http://www.w3.org/2000/svg"
 width="3000.000000pt" height="3000.000000pt" viewBox="0 0 3000.000000 3000.000000"
 preserveAspectRatio="xMidYMid meet">
<metadata>
Created by potrace 1.14, written by Peter Selinger 2001-2017
</metadata>
<g transform="translate(0.000000,3000.000000) scale(0.100000,-0.100000)"
fill="#000000" stroke="none">
<path d="M14579 28496 c-2 -2 -85 -7 -184 -10 -99 -4 -196 -8 -215 -11 -20 -2
-83 -6 -140 -10 -116 -7 -153 -9 -262 -20 -40 -4 -93 -9 -118 -11 -67 -6 -151
-15 -185 -19 -16 -2 -56 -7 -89 -10 -32 -4 -68 -8 -80 -10 -11 -2 -43 -6 -71
-10 -93 -11 -203 -27 -355 -51 -52 -8 -111 -17 -130 -20 -19 -3 -42 -7 -50 -9
-8 -3 -33 -7 -55 -11 -22 -3 -98 -17 -170 -31 -71 -14 -141 -27 -155 -29 -262
-47 -764 -172 -1160 -289 -69 -20 -141 -42 -160 -47 -177 -51 -672 -225 -945
-333 -161 -64 -551 -227 -584 -246 -9 -4 -38 -18 -66 -30 -165 -71 -636 -306
-865 -432 -30 -17 -75 -41 -100 -55 -113 -62 -390 -225 -535 -315 -147 -92
-584 -377 -609 -398 -6 -5 -57 -42 -113 -82 -155 -110 -265 -192 -408 -302
-138 -106 -138 -106 -201 -157 -23 -18 -58 -46 -79 -63 -62 -50 -370 -309
-375 -316 -3 -3 -27 -25 -55 -49 -302 -259 -866 -821 -1142 -1136 -10 -12 -44
-50 -75 -85 -69 -79 -82 -94 -133 -155 -22 -26 -45 -52 -50 -58 -6 -6 -42 -49
-80 -96 -38 -47 -77 -94 -86 -105 -138 -165 -451 -584 -609 -815 -44 -63 -83
-119 -87 -125 -5 -5 -20 -28 -33 -50 -13 -22 -27 -42 -30 -45 -4 -3 -13 -16
-20 -29 -7 -14 -17 -30 -21 -35 -33 -40 -319 -503 -319 -516 0 -6 -4 -10 -10
-10 -5 0 -10 -4 -10 -10 0 -5 -14 -33 -31 -62 -251 -426 -484 -887 -734 -1453
-49 -112 -132 -316 -189 -465 -37 -96 -73 -190 -81 -208 -8 -18 -15 -37 -15
-43 0 -6 -6 -25 -14 -42 -39 -86 -252 -754 -296 -927 -6 -25 -18 -64 -25 -87
-8 -23 -17 -52 -19 -65 -4 -19 -33 -138 -51 -208 -54 -212 -150 -643 -171
-775 -3 -16 -14 -77 -24 -135 -22 -122 -27 -151 -35 -205 -3 -22 -10 -62 -15
-90 -5 -27 -12 -68 -14 -90 -3 -22 -7 -55 -10 -73 -10 -67 -27 -197 -40 -309
-3 -21 -8 -63 -12 -93 -4 -30 -8 -66 -9 -80 -1 -14 -5 -56 -9 -95 -16 -156
-24 -258 -41 -510 -14 -200 -20 -463 -20 -855 1 -530 11 -791 50 -1207 3 -32
8 -85 11 -118 2 -33 6 -71 9 -85 3 -14 7 -56 10 -95 3 -38 8 -81 10 -95 2 -14
7 -43 9 -65 5 -37 24 -183 31 -230 18 -130 27 -190 30 -195 2 -3 6 -27 9 -55
6 -51 9 -71 26 -160 5 -27 11 -63 14 -80 10 -65 25 -142 35 -185 5 -25 12 -61
16 -80 3 -19 8 -46 10 -60 3 -14 7 -34 9 -45 3 -11 14 -63 26 -115 12 -52 28
-123 35 -156 7 -34 21 -90 29 -125 9 -35 18 -73 21 -84 5 -24 57 -223 95 -360
5 -16 16 -57 24 -90 36 -132 211 -686 225 -710 3 -5 6 -14 7 -20 5 -21 121
-342 129 -356 4 -5 8 -17 10 -26 4 -19 62 -165 95 -243 10 -25 42 -101 71
-170 28 -69 62 -147 74 -175 13 -27 33 -72 45 -100 13 -27 36 -78 51 -112 16
-35 43 -93 60 -130 68 -150 299 -605 359 -708 17 -29 40 -70 103 -185 34 -61
174 -299 218 -370 15 -25 40 -65 55 -90 91 -151 465 -713 517 -775 4 -5 33
-44 63 -85 211 -290 491 -640 744 -930 310 -355 697 -750 1085 -1105 17 -15
59 -53 94 -84 35 -31 71 -63 80 -72 42 -41 484 -408 581 -482 9 -7 42 -32 75
-57 33 -25 62 -48 65 -51 3 -3 57 -44 120 -90 63 -46 117 -86 120 -89 5 -7
119 -86 149 -105 9 -5 18 -13 21 -16 9 -9 190 -133 210 -144 11 -5 20 -13 20
-17 0 -5 5 -8 11 -8 6 0 28 -13 49 -30 21 -16 43 -30 49 -30 6 0 11 -3 11 -8
0 -4 9 -12 20 -17 10 -6 83 -51 162 -102 143 -91 407 -253 413 -253 2 0 32
-17 66 -38 35 -21 89 -52 119 -69 30 -17 91 -51 135 -75 506 -282 1177 -592
1700 -787 77 -29 154 -58 170 -64 17 -7 32 -12 35 -13 3 0 16 -5 30 -11 49
-20 477 -162 610 -203 74 -22 149 -44 165 -50 84 -26 410 -113 560 -149 94
-23 179 -44 190 -46 11 -3 63 -15 115 -26 52 -11 102 -22 110 -24 28 -6 315
-64 345 -70 42 -7 263 -44 305 -51 19 -3 60 -9 90 -14 30 -5 73 -12 95 -15 22
-2 49 -7 60 -9 11 -2 63 -9 115 -16 52 -6 106 -13 120 -15 14 -2 52 -7 85 -10
33 -4 71 -8 85 -11 14 -2 54 -6 90 -9 36 -4 79 -8 95 -9 58 -7 161 -16 215
-21 240 -18 243 -18 510 -32 315 -15 1154 -9 1435 12 22 1 87 6 145 9 58 4
119 8 135 10 28 3 135 13 235 22 75 7 152 14 184 19 55 7 120 15 166 20 53 6
264 34 300 40 71 11 97 16 120 20 14 3 41 7 60 10 68 9 326 54 425 74 55 11
111 22 125 25 14 2 126 27 250 55 194 43 330 76 555 136 223 59 541 155 735
222 85 29 162 55 170 57 48 14 414 148 465 170 16 8 62 26 100 41 84 32 340
139 410 170 71 33 247 112 330 149 39 17 86 40 105 52 19 11 51 26 70 34 49
20 520 262 545 280 6 4 41 24 78 44 122 66 328 186 497 289 151 92 688 443
700 457 3 4 28 22 55 40 28 19 52 37 53 42 2 4 8 8 13 8 5 0 17 6 26 14 10 8
83 63 163 122 138 102 411 314 475 368 17 14 35 29 40 33 19 15 120 98 131
108 6 5 35 30 64 55 72 60 221 191 319 279 294 265 771 746 1008 1017 10 12
45 52 78 89 200 228 381 448 531 645 27 36 51 67 54 70 10 8 240 321 280 380
8 12 22 32 31 44 25 33 163 234 174 253 6 10 49 77 96 148 86 131 255 399 288
458 10 18 61 106 113 197 322 562 599 1137 830 1725 50 127 94 239 99 250 36
86 195 555 259 765 17 58 38 125 46 150 20 68 114 411 120 440 3 14 7 33 10
42 3 9 7 25 9 35 3 10 18 74 35 143 60 246 142 646 165 798 4 25 7 44 20 112
6 29 14 81 19 125 2 17 9 57 15 90 5 33 13 80 16 105 3 25 8 56 10 70 6 43 17
131 20 164 3 31 12 102 20 166 3 19 7 62 10 95 3 33 8 71 10 85 2 14 7 63 10
110 3 47 8 101 10 120 3 30 7 87 21 290 26 414 26 1239 -1 1650 -9 139 -17
248 -19 275 -2 17 -6 66 -10 110 -4 44 -9 98 -11 120 -3 22 -7 67 -10 100 -3
33 -8 71 -10 85 -2 14 -6 52 -10 85 -3 33 -8 74 -10 90 -3 17 -9 68 -15 115
-6 47 -13 96 -15 110 -4 25 -33 213 -40 260 -2 14 -6 39 -9 55 -3 17 -12 71
-21 120 -8 50 -17 97 -20 105 -2 8 -6 32 -9 53 -6 37 -54 275 -75 367 -5 25
-12 56 -14 70 -29 154 -147 607 -239 915 -85 287 -293 896 -351 1027 -8 18
-20 49 -28 68 -39 106 -195 474 -270 638 -16 34 -43 92 -60 130 -81 177 -308
621 -385 755 -19 32 -34 60 -34 62 0 5 -194 341 -251 433 -24 39 -49 80 -54
90 -6 9 -19 31 -29 47 -11 17 -34 53 -51 80 -18 28 -68 104 -111 170 -43 66
-83 128 -89 137 -56 92 -457 653 -485 678 -3 3 -32 41 -65 85 -33 44 -66 86
-73 93 -7 8 -25 30 -40 50 -15 21 -29 39 -32 42 -3 3 -46 55 -95 115 -76 92
-245 292 -280 331 -5 6 -39 44 -75 84 -182 203 -316 345 -525 554 -219 220
-401 392 -580 551 -38 33 -73 65 -79 70 -10 10 -141 122 -196 169 -14 11 -50
41 -80 66 -30 25 -57 47 -60 50 -3 3 -27 23 -55 45 -27 22 -57 46 -65 52 -8 7
-85 67 -170 133 -85 66 -160 123 -165 128 -6 5 -44 33 -85 62 -41 30 -80 59
-87 65 -6 5 -27 20 -45 33 -18 13 -71 50 -118 83 -47 34 -116 82 -155 107 -38
26 -74 50 -80 55 -28 21 -83 58 -110 73 -16 9 -32 20 -35 23 -13 17 -456 288
-665 408 -110 62 -207 118 -215 123 -8 5 -55 30 -105 56 -49 25 -94 50 -100
54 -16 13 -498 252 -630 313 -169 78 -295 133 -405 179 -52 22 -108 46 -125
53 -88 40 -478 189 -630 242 -323 112 -788 259 -879 278 -12 2 -37 9 -56 15
-35 10 -294 78 -328 85 -9 2 -82 19 -162 39 -80 19 -224 51 -320 71 -96 19
-195 40 -220 45 -25 5 -61 12 -80 16 -19 3 -73 12 -120 20 -157 27 -201 34
-300 49 -41 6 -59 9 -130 20 -59 9 -179 25 -230 30 -30 3 -66 8 -80 10 -14 2
-56 7 -95 10 -38 4 -77 8 -85 10 -8 2 -49 7 -90 10 -41 3 -86 8 -100 10 -14 2
-70 6 -125 10 -55 4 -122 9 -150 11 -27 2 -97 6 -155 10 -58 3 -125 8 -150 10
-61 6 -1076 15 -1081 10z"/>
</g>
</svg>
